<svg xmlns="http://www.w3.org/2000/svg" xmlns:xlink="http://www.w3.org/1999/xlink" width="600" zoomAndPan="magnify" viewBox="0 0 450 225" height="300" preserveAspectRatio="xMidYMid meet" version="1.0"><defs><g/><clipPath id="6a3a13cebb"><path d="M 15.898438 70 L 120.898438 70 L 120.898438 155.746094 L 15.898438 155.746094 Z M 15.898438 70 " clip-rule="nonzero"/></clipPath></defs><g fill="#ffffff" fill-opacity="1"><g transform="translate(134.546757, 152.05771)"><g><path d="M 7.609375 -8.609375 C 7.816406 -8.492188 7.921875 -8.316406 7.921875 -8.078125 C 7.921875 -7.921875 7.867188 -7.78125 7.765625 -7.65625 C 7.660156 -7.519531 7.515625 -7.453125 7.328125 -7.453125 C 7.203125 -7.453125 7.082031 -7.476562 6.96875 -7.53125 C 6.4375 -7.84375 5.851562 -8 5.21875 -8 C 4.570312 -8 4 -7.851562 3.5 -7.5625 C 3 -7.269531 2.609375 -6.863281 2.328125 -6.34375 C 2.046875 -5.832031 1.90625 -5.242188 1.90625 -4.578125 C 1.90625 -3.847656 2.046875 -3.222656 2.328125 -2.703125 C 2.617188 -2.179688 3.015625 -1.78125 3.515625 -1.5 C 4.023438 -1.226562 4.59375 -1.09375 5.21875 -1.09375 C 5.863281 -1.09375 6.445312 -1.25 6.96875 -1.5625 C 7.070312 -1.613281 7.1875 -1.640625 7.3125 -1.640625 C 7.507812 -1.640625 7.660156 -1.566406 7.765625 -1.421875 C 7.867188 -1.296875 7.921875 -1.15625 7.921875 -1 C 7.921875 -0.894531 7.894531 -0.796875 7.84375 -0.703125 C 7.789062 -0.617188 7.710938 -0.550781 7.609375 -0.5 C 7.273438 -0.300781 6.894531 -0.144531 6.46875 -0.03125 C 6.050781 0.0703125 5.632812 0.125 5.21875 0.125 C 4.375 0.125 3.597656 -0.0625 2.890625 -0.4375 C 2.179688 -0.8125 1.613281 -1.351562 1.1875 -2.0625 C 0.769531 -2.78125 0.5625 -3.617188 0.5625 -4.578125 C 0.5625 -5.453125 0.765625 -6.242188 1.171875 -6.953125 C 1.578125 -7.660156 2.132812 -8.21875 2.84375 -8.625 C 3.550781 -9.03125 4.34375 -9.234375 5.21875 -9.234375 C 6.0625 -9.234375 6.859375 -9.023438 7.609375 -8.609375 Z M 7.609375 -8.609375 "/></g></g></g><g fill="#ffffff" fill-opacity="1"><g transform="translate(144.578589, 152.05771)"><g><path d="M 7.40625 -3.421875 C 7.40625 -2.742188 7.25 -2.132812 6.9375 -1.59375 C 6.632812 -1.050781 6.21875 -0.628906 5.6875 -0.328125 C 5.164062 -0.0234375 4.585938 0.125 3.953125 0.125 C 3.316406 0.125 2.734375 -0.0234375 2.203125 -0.328125 C 1.679688 -0.628906 1.269531 -1.050781 0.96875 -1.59375 C 0.664062 -2.132812 0.515625 -2.742188 0.515625 -3.421875 C 0.515625 -4.097656 0.664062 -4.710938 0.96875 -5.265625 C 1.269531 -5.816406 1.679688 -6.242188 2.203125 -6.546875 C 2.734375 -6.847656 3.316406 -7 3.953125 -7 C 4.585938 -7 5.164062 -6.847656 5.6875 -6.546875 C 6.21875 -6.242188 6.632812 -5.816406 6.9375 -5.265625 C 7.25 -4.710938 7.40625 -4.097656 7.40625 -3.421875 Z M 6.171875 -3.421875 C 6.171875 -3.890625 6.070312 -4.304688 5.875 -4.671875 C 5.675781 -5.046875 5.410156 -5.335938 5.078125 -5.546875 C 4.742188 -5.753906 4.367188 -5.859375 3.953125 -5.859375 C 3.546875 -5.859375 3.175781 -5.753906 2.84375 -5.546875 C 2.507812 -5.335938 2.242188 -5.046875 2.046875 -4.671875 C 1.847656 -4.304688 1.75 -3.890625 1.75 -3.421875 C 1.75 -2.960938 1.847656 -2.546875 2.046875 -2.171875 C 2.242188 -1.804688 2.507812 -1.519531 2.84375 -1.3125 C 3.175781 -1.113281 3.546875 -1.015625 3.953125 -1.015625 C 4.367188 -1.015625 4.742188 -1.113281 5.078125 -1.3125 C 5.410156 -1.519531 5.675781 -1.804688 5.875 -2.171875 C 6.070312 -2.546875 6.171875 -2.960938 6.171875 -3.421875 Z M 6.171875 -3.421875 "/></g></g></g><g fill="#ffffff" fill-opacity="1"><g transform="translate(154.192472, 152.05771)"><g><path d="M 6.484375 -9.671875 C 6.660156 -9.671875 6.804688 -9.609375 6.921875 -9.484375 C 7.046875 -9.367188 7.109375 -9.222656 7.109375 -9.046875 L 7.109375 -0.625 C 7.109375 -0.445312 7.046875 -0.296875 6.921875 -0.171875 C 6.804688 -0.0546875 6.660156 0 6.484375 0 C 6.296875 0 6.144531 -0.0546875 6.03125 -0.171875 C 5.914062 -0.296875 5.859375 -0.445312 5.859375 -0.625 L 5.859375 -1 C 5.640625 -0.675781 5.332031 -0.40625 4.9375 -0.1875 C 4.539062 0.0195312 4.117188 0.125 3.671875 0.125 C 3.078125 0.125 2.539062 -0.0234375 2.0625 -0.328125 C 1.582031 -0.628906 1.203125 -1.050781 0.921875 -1.59375 C 0.648438 -2.144531 0.515625 -2.757812 0.515625 -3.4375 C 0.515625 -4.113281 0.648438 -4.722656 0.921875 -5.265625 C 1.191406 -5.816406 1.566406 -6.242188 2.046875 -6.546875 C 2.523438 -6.847656 3.050781 -7 3.625 -7 C 4.09375 -7 4.519531 -6.898438 4.90625 -6.703125 C 5.300781 -6.515625 5.617188 -6.269531 5.859375 -5.96875 L 5.859375 -9.046875 C 5.859375 -9.222656 5.914062 -9.367188 6.03125 -9.484375 C 6.144531 -9.609375 6.296875 -9.671875 6.484375 -9.671875 Z M 3.8125 -1.015625 C 4.21875 -1.015625 4.578125 -1.117188 4.890625 -1.328125 C 5.210938 -1.535156 5.460938 -1.820312 5.640625 -2.1875 C 5.828125 -2.5625 5.921875 -2.976562 5.921875 -3.4375 C 5.921875 -3.882812 5.828125 -4.289062 5.640625 -4.65625 C 5.460938 -5.03125 5.210938 -5.320312 4.890625 -5.53125 C 4.578125 -5.75 4.21875 -5.859375 3.8125 -5.859375 C 3.40625 -5.859375 3.039062 -5.75 2.71875 -5.53125 C 2.40625 -5.320312 2.160156 -5.03125 1.984375 -4.65625 C 1.804688 -4.289062 1.71875 -3.882812 1.71875 -3.4375 C 1.71875 -2.976562 1.804688 -2.5625 1.984375 -2.1875 C 2.160156 -1.820312 2.40625 -1.535156 2.71875 -1.328125 C 3.039062 -1.117188 3.40625 -1.015625 3.8125 -1.015625 Z M 3.8125 -1.015625 "/></g></g></g><g fill="#ffffff" fill-opacity="1"><g transform="translate(163.910846, 152.05771)"><g><path d="M 6.9375 -3.6875 C 6.925781 -3.53125 6.859375 -3.394531 6.734375 -3.28125 C 6.617188 -3.175781 6.476562 -3.125 6.3125 -3.125 L 1.71875 -3.125 C 1.769531 -2.488281 2.003906 -1.976562 2.421875 -1.59375 C 2.847656 -1.207031 3.367188 -1.015625 3.984375 -1.015625 C 4.398438 -1.015625 4.738281 -1.078125 5 -1.203125 C 5.257812 -1.328125 5.488281 -1.484375 5.6875 -1.671875 C 5.820312 -1.753906 5.953125 -1.796875 6.078125 -1.796875 C 6.222656 -1.796875 6.34375 -1.738281 6.4375 -1.625 C 6.539062 -1.519531 6.59375 -1.398438 6.59375 -1.265625 C 6.59375 -1.085938 6.503906 -0.921875 6.328125 -0.765625 C 6.078125 -0.515625 5.742188 -0.300781 5.328125 -0.125 C 4.910156 0.0390625 4.484375 0.125 4.046875 0.125 C 3.335938 0.125 2.71875 -0.0195312 2.1875 -0.3125 C 1.65625 -0.601562 1.242188 -1.015625 0.953125 -1.546875 C 0.660156 -2.078125 0.515625 -2.679688 0.515625 -3.359375 C 0.515625 -4.085938 0.660156 -4.726562 0.953125 -5.28125 C 1.253906 -5.832031 1.648438 -6.253906 2.140625 -6.546875 C 2.640625 -6.847656 3.171875 -7 3.734375 -7 C 4.296875 -7 4.816406 -6.851562 5.296875 -6.5625 C 5.785156 -6.28125 6.175781 -5.882812 6.46875 -5.375 C 6.769531 -4.875 6.925781 -4.3125 6.9375 -3.6875 Z M 3.734375 -5.859375 C 3.242188 -5.859375 2.820312 -5.71875 2.46875 -5.4375 C 2.113281 -5.164062 1.878906 -4.742188 1.765625 -4.171875 L 5.609375 -4.171875 L 5.609375 -4.265625 C 5.566406 -4.734375 5.359375 -5.113281 4.984375 -5.40625 C 4.617188 -5.707031 4.203125 -5.859375 3.734375 -5.859375 Z M 3.734375 -5.859375 "/></g></g></g><g fill="#ffffff" fill-opacity="1"><g transform="translate(173.054527, 152.05771)"><g><path d="M 1.375 -0.015625 C 1.164062 -0.015625 1.003906 -0.0703125 0.890625 -0.1875 C 0.785156 -0.300781 0.734375 -0.460938 0.734375 -0.671875 L 0.734375 -0.921875 C 0.734375 -1.128906 0.785156 -1.289062 0.890625 -1.40625 C 1.003906 -1.519531 1.164062 -1.578125 1.375 -1.578125 L 1.5 -1.578125 C 1.71875 -1.578125 1.878906 -1.519531 1.984375 -1.40625 C 2.097656 -1.289062 2.15625 -1.128906 2.15625 -0.921875 L 2.15625 -0.671875 C 2.15625 -0.234375 1.9375 -0.015625 1.5 -0.015625 Z M 1.375 -0.015625 "/></g></g></g><g fill="#ffffff" fill-opacity="1"><g transform="translate(177.639959, 152.05771)"><g/></g></g><g fill="#ffffff" fill-opacity="1"><g transform="translate(182.956798, 152.05771)"><g><path d="M 7.609375 -8.609375 C 7.816406 -8.492188 7.921875 -8.316406 7.921875 -8.078125 C 7.921875 -7.921875 7.867188 -7.78125 7.765625 -7.65625 C 7.660156 -7.519531 7.515625 -7.453125 7.328125 -7.453125 C 7.203125 -7.453125 7.082031 -7.476562 6.96875 -7.53125 C 6.4375 -7.84375 5.851562 -8 5.21875 -8 C 4.570312 -8 4 -7.851562 3.5 -7.5625 C 3 -7.269531 2.609375 -6.863281 2.328125 -6.34375 C 2.046875 -5.832031 1.90625 -5.242188 1.90625 -4.578125 C 1.90625 -3.847656 2.046875 -3.222656 2.328125 -2.703125 C 2.617188 -2.179688 3.015625 -1.78125 3.515625 -1.5 C 4.023438 -1.226562 4.59375 -1.09375 5.21875 -1.09375 C 5.863281 -1.09375 6.445312 -1.25 6.96875 -1.5625 C 7.070312 -1.613281 7.1875 -1.640625 7.3125 -1.640625 C 7.507812 -1.640625 7.660156 -1.566406 7.765625 -1.421875 C 7.867188 -1.296875 7.921875 -1.15625 7.921875 -1 C 7.921875 -0.894531 7.894531 -0.796875 7.84375 -0.703125 C 7.789062 -0.617188 7.710938 -0.550781 7.609375 -0.5 C 7.273438 -0.300781 6.894531 -0.144531 6.46875 -0.03125 C 6.050781 0.0703125 5.632812 0.125 5.21875 0.125 C 4.375 0.125 3.597656 -0.0625 2.890625 -0.4375 C 2.179688 -0.8125 1.613281 -1.351562 1.1875 -2.0625 C 0.769531 -2.78125 0.5625 -3.617188 0.5625 -4.578125 C 0.5625 -5.453125 0.765625 -6.242188 1.171875 -6.953125 C 1.578125 -7.660156 2.132812 -8.21875 2.84375 -8.625 C 3.550781 -9.03125 4.34375 -9.234375 5.21875 -9.234375 C 6.0625 -9.234375 6.859375 -9.023438 7.609375 -8.609375 Z M 7.609375 -8.609375 "/></g></g></g><g fill="#ffffff" fill-opacity="1"><g transform="translate(192.988631, 152.05771)"><g><path d="M 7.40625 -3.421875 C 7.40625 -2.742188 7.25 -2.132812 6.9375 -1.59375 C 6.632812 -1.050781 6.21875 -0.628906 5.6875 -0.328125 C 5.164062 -0.0234375 4.585938 0.125 3.953125 0.125 C 3.316406 0.125 2.734375 -0.0234375 2.203125 -0.328125 C 1.679688 -0.628906 1.269531 -1.050781 0.96875 -1.59375 C 0.664062 -2.132812 0.515625 -2.742188 0.515625 -3.421875 C 0.515625 -4.097656 0.664062 -4.710938 0.96875 -5.265625 C 1.269531 -5.816406 1.679688 -6.242188 2.203125 -6.546875 C 2.734375 -6.847656 3.316406 -7 3.953125 -7 C 4.585938 -7 5.164062 -6.847656 5.6875 -6.546875 C 6.21875 -6.242188 6.632812 -5.816406 6.9375 -5.265625 C 7.25 -4.710938 7.40625 -4.097656 7.40625 -3.421875 Z M 6.171875 -3.421875 C 6.171875 -3.890625 6.070312 -4.304688 5.875 -4.671875 C 5.675781 -5.046875 5.410156 -5.335938 5.078125 -5.546875 C 4.742188 -5.753906 4.367188 -5.859375 3.953125 -5.859375 C 3.546875 -5.859375 3.175781 -5.753906 2.84375 -5.546875 C 2.507812 -5.335938 2.242188 -5.046875 2.046875 -4.671875 C 1.847656 -4.304688 1.75 -3.890625 1.75 -3.421875 C 1.75 -2.960938 1.847656 -2.546875 2.046875 -2.171875 C 2.242188 -1.804688 2.507812 -1.519531 2.84375 -1.3125 C 3.175781 -1.113281 3.546875 -1.015625 3.953125 -1.015625 C 4.367188 -1.015625 4.742188 -1.113281 5.078125 -1.3125 C 5.410156 -1.519531 5.675781 -1.804688 5.875 -2.171875 C 6.070312 -2.546875 6.171875 -2.960938 6.171875 -3.421875 Z M 6.171875 -3.421875 "/></g></g></g><g fill="#ffffff" fill-opacity="1"><g transform="translate(202.602514, 152.05771)"><g><path d="M 2.265625 -0.625 C 2.265625 -0.445312 2.203125 -0.296875 2.078125 -0.171875 C 1.960938 -0.0546875 1.816406 0 1.640625 0 C 1.472656 0 1.328125 -0.0546875 1.203125 -0.171875 C 1.085938 -0.296875 1.03125 -0.445312 1.03125 -0.625 L 1.03125 -9.046875 C 1.03125 -9.210938 1.085938 -9.359375 1.203125 -9.484375 C 1.328125 -9.609375 1.476562 -9.671875 1.65625 -9.671875 C 1.832031 -9.671875 1.976562 -9.609375 2.09375 -9.484375 C 2.207031 -9.359375 2.265625 -9.210938 2.265625 -9.046875 Z M 2.265625 -0.625 "/></g></g></g><g fill="#ffffff" fill-opacity="1"><g transform="translate(207.605891, 152.05771)"><g><path d="M 2.265625 -0.625 C 2.265625 -0.445312 2.203125 -0.296875 2.078125 -0.171875 C 1.960938 -0.0546875 1.816406 0 1.640625 0 C 1.472656 0 1.328125 -0.0546875 1.203125 -0.171875 C 1.085938 -0.296875 1.03125 -0.445312 1.03125 -0.625 L 1.03125 -9.046875 C 1.03125 -9.210938 1.085938 -9.359375 1.203125 -9.484375 C 1.328125 -9.609375 1.476562 -9.671875 1.65625 -9.671875 C 1.832031 -9.671875 1.976562 -9.609375 2.09375 -9.484375 C 2.207031 -9.359375 2.265625 -9.210938 2.265625 -9.046875 Z M 2.265625 -0.625 "/></g></g></g><g fill="#ffffff" fill-opacity="1"><g transform="translate(212.609268, 152.05771)"><g><path d="M 6.484375 -6.9375 C 6.660156 -6.9375 6.804688 -6.875 6.921875 -6.75 C 7.046875 -6.632812 7.109375 -6.484375 7.109375 -6.296875 L 7.109375 -0.625 C 7.109375 -0.445312 7.046875 -0.296875 6.921875 -0.171875 C 6.804688 -0.0546875 6.660156 0 6.484375 0 C 6.296875 0 6.144531 -0.0546875 6.03125 -0.171875 C 5.914062 -0.296875 5.859375 -0.445312 5.859375 -0.625 L 5.859375 -0.96875 C 5.640625 -0.664062 5.332031 -0.40625 4.9375 -0.1875 C 4.539062 0.0195312 4.117188 0.125 3.671875 0.125 C 3.078125 0.125 2.535156 -0.0234375 2.046875 -0.328125 C 1.566406 -0.628906 1.191406 -1.050781 0.921875 -1.59375 C 0.648438 -2.144531 0.515625 -2.757812 0.515625 -3.4375 C 0.515625 -4.113281 0.648438 -4.722656 0.921875 -5.265625 C 1.191406 -5.816406 1.566406 -6.242188 2.046875 -6.546875 C 2.523438 -6.847656 3.050781 -7 3.625 -7 C 4.09375 -7 4.523438 -6.898438 4.921875 -6.703125 C 5.316406 -6.515625 5.628906 -6.273438 5.859375 -5.984375 L 5.859375 -6.296875 C 5.859375 -6.484375 5.914062 -6.632812 6.03125 -6.75 C 6.144531 -6.875 6.296875 -6.9375 6.484375 -6.9375 Z M 3.8125 -1.015625 C 4.21875 -1.015625 4.578125 -1.117188 4.890625 -1.328125 C 5.210938 -1.535156 5.460938 -1.820312 5.640625 -2.1875 C 5.828125 -2.5625 5.921875 -2.976562 5.921875 -3.4375 C 5.921875 -3.882812 5.828125 -4.289062 5.640625 -4.65625 C 5.460938 -5.03125 5.210938 -5.320312 4.890625 -5.53125 C 4.578125 -5.75 4.21875 -5.859375 3.8125 -5.859375 C 3.40625 -5.859375 3.039062 -5.75 2.71875 -5.53125 C 2.40625 -5.320312 2.160156 -5.035156 1.984375 -4.671875 C 1.804688 -4.304688 1.71875 -3.894531 1.71875 -3.4375 C 1.71875 -2.976562 1.804688 -2.5625 1.984375 -2.1875 C 2.160156 -1.820312 2.40625 -1.535156 2.71875 -1.328125 C 3.039062 -1.117188 3.40625 -1.015625 3.8125 -1.015625 Z M 3.8125 -1.015625 "/></g></g></g><g fill="#ffffff" fill-opacity="1"><g transform="translate(222.327639, 152.05771)"><g><path d="M 4.359375 -7 C 4.953125 -7 5.488281 -6.847656 5.96875 -6.546875 C 6.445312 -6.242188 6.820312 -5.820312 7.09375 -5.28125 C 7.375 -4.738281 7.515625 -4.128906 7.515625 -3.453125 C 7.515625 -2.765625 7.375 -2.144531 7.09375 -1.59375 C 6.820312 -1.050781 6.445312 -0.628906 5.96875 -0.328125 C 5.488281 -0.0234375 4.960938 0.125 4.390625 0.125 C 3.929688 0.125 3.503906 0.0234375 3.109375 -0.171875 C 2.722656 -0.367188 2.410156 -0.617188 2.171875 -0.921875 L 2.171875 -0.53125 C 2.171875 -0.363281 2.109375 -0.21875 1.984375 -0.09375 C 1.867188 0.03125 1.722656 0.09375 1.546875 0.09375 C 1.367188 0.09375 1.21875 0.0351562 1.09375 -0.078125 C 0.976562 -0.203125 0.921875 -0.351562 0.921875 -0.53125 L 0.921875 -9.046875 C 0.921875 -9.222656 0.976562 -9.367188 1.09375 -9.484375 C 1.207031 -9.609375 1.359375 -9.671875 1.546875 -9.671875 C 1.722656 -9.671875 1.867188 -9.609375 1.984375 -9.484375 C 2.109375 -9.359375 2.171875 -9.210938 2.171875 -9.046875 L 2.171875 -5.859375 C 2.378906 -6.171875 2.679688 -6.4375 3.078125 -6.65625 C 3.484375 -6.882812 3.910156 -7 4.359375 -7 Z M 4.21875 -1.015625 C 4.613281 -1.015625 4.972656 -1.117188 5.296875 -1.328125 C 5.617188 -1.546875 5.867188 -1.835938 6.046875 -2.203125 C 6.234375 -2.578125 6.328125 -2.992188 6.328125 -3.453125 C 6.328125 -3.898438 6.234375 -4.304688 6.046875 -4.671875 C 5.867188 -5.035156 5.617188 -5.320312 5.296875 -5.53125 C 4.972656 -5.75 4.613281 -5.859375 4.21875 -5.859375 C 3.8125 -5.859375 3.445312 -5.75 3.125 -5.53125 C 2.800781 -5.320312 2.550781 -5.035156 2.375 -4.671875 C 2.195312 -4.316406 2.109375 -3.910156 2.109375 -3.453125 C 2.109375 -2.984375 2.195312 -2.566406 2.375 -2.203125 C 2.550781 -1.835938 2.800781 -1.546875 3.125 -1.328125 C 3.445312 -1.117188 3.8125 -1.015625 4.21875 -1.015625 Z M 4.21875 -1.015625 "/></g></g></g><g fill="#ffffff" fill-opacity="1"><g transform="translate(232.046009, 152.05771)"><g><path d="M 7.40625 -3.421875 C 7.40625 -2.742188 7.25 -2.132812 6.9375 -1.59375 C 6.632812 -1.050781 6.21875 -0.628906 5.6875 -0.328125 C 5.164062 -0.0234375 4.585938 0.125 3.953125 0.125 C 3.316406 0.125 2.734375 -0.0234375 2.203125 -0.328125 C 1.679688 -0.628906 1.269531 -1.050781 0.96875 -1.59375 C 0.664062 -2.132812 0.515625 -2.742188 0.515625 -3.421875 C 0.515625 -4.097656 0.664062 -4.710938 0.96875 -5.265625 C 1.269531 -5.816406 1.679688 -6.242188 2.203125 -6.546875 C 2.734375 -6.847656 3.316406 -7 3.953125 -7 C 4.585938 -7 5.164062 -6.847656 5.6875 -6.546875 C 6.21875 -6.242188 6.632812 -5.816406 6.9375 -5.265625 C 7.25 -4.710938 7.40625 -4.097656 7.40625 -3.421875 Z M 6.171875 -3.421875 C 6.171875 -3.890625 6.070312 -4.304688 5.875 -4.671875 C 5.675781 -5.046875 5.410156 -5.335938 5.078125 -5.546875 C 4.742188 -5.753906 4.367188 -5.859375 3.953125 -5.859375 C 3.546875 -5.859375 3.175781 -5.753906 2.84375 -5.546875 C 2.507812 -5.335938 2.242188 -5.046875 2.046875 -4.671875 C 1.847656 -4.304688 1.75 -3.890625 1.75 -3.421875 C 1.75 -2.960938 1.847656 -2.546875 2.046875 -2.171875 C 2.242188 -1.804688 2.507812 -1.519531 2.84375 -1.3125 C 3.175781 -1.113281 3.546875 -1.015625 3.953125 -1.015625 C 4.367188 -1.015625 4.742188 -1.113281 5.078125 -1.3125 C 5.410156 -1.519531 5.675781 -1.804688 5.875 -2.171875 C 6.070312 -2.546875 6.171875 -2.960938 6.171875 -3.421875 Z M 6.171875 -3.421875 "/></g></g></g><g fill="#ffffff" fill-opacity="1"><g transform="translate(241.659889, 152.05771)"><g><path d="M 4.34375 -7 C 4.5625 -7 4.753906 -6.941406 4.921875 -6.828125 C 5.085938 -6.710938 5.171875 -6.566406 5.171875 -6.390625 C 5.171875 -6.179688 5.113281 -6.019531 5 -5.90625 C 4.894531 -5.800781 4.765625 -5.75 4.609375 -5.75 C 4.535156 -5.75 4.421875 -5.773438 4.265625 -5.828125 C 4.078125 -5.890625 3.929688 -5.921875 3.828125 -5.921875 C 3.554688 -5.921875 3.289062 -5.828125 3.03125 -5.640625 C 2.78125 -5.453125 2.570312 -5.191406 2.40625 -4.859375 C 2.25 -4.535156 2.171875 -4.175781 2.171875 -3.78125 L 2.171875 -0.625 C 2.171875 -0.445312 2.109375 -0.296875 1.984375 -0.171875 C 1.867188 -0.0546875 1.722656 0 1.546875 0 C 1.359375 0 1.207031 -0.0546875 1.09375 -0.171875 C 0.976562 -0.296875 0.921875 -0.445312 0.921875 -0.625 L 0.921875 -6.21875 C 0.921875 -6.394531 0.976562 -6.539062 1.09375 -6.65625 C 1.21875 -6.78125 1.367188 -6.84375 1.546875 -6.84375 C 1.722656 -6.84375 1.867188 -6.78125 1.984375 -6.65625 C 2.109375 -6.539062 2.171875 -6.394531 2.171875 -6.21875 L 2.171875 -5.546875 C 2.359375 -5.972656 2.644531 -6.316406 3.03125 -6.578125 C 3.414062 -6.847656 3.851562 -6.988281 4.34375 -7 Z M 4.34375 -7 "/></g></g></g><g fill="#ffffff" fill-opacity="1"><g transform="translate(248.753012, 152.05771)"><g><path d="M 6.484375 -6.9375 C 6.660156 -6.9375 6.804688 -6.875 6.921875 -6.75 C 7.046875 -6.632812 7.109375 -6.484375 7.109375 -6.296875 L 7.109375 -0.625 C 7.109375 -0.445312 7.046875 -0.296875 6.921875 -0.171875 C 6.804688 -0.0546875 6.660156 0 6.484375 0 C 6.296875 0 6.144531 -0.0546875 6.03125 -0.171875 C 5.914062 -0.296875 5.859375 -0.445312 5.859375 -0.625 L 5.859375 -0.96875 C 5.640625 -0.664062 5.332031 -0.40625 4.9375 -0.1875 C 4.539062 0.0195312 4.117188 0.125 3.671875 0.125 C 3.078125 0.125 2.535156 -0.0234375 2.046875 -0.328125 C 1.566406 -0.628906 1.191406 -1.050781 0.921875 -1.59375 C 0.648438 -2.144531 0.515625 -2.757812 0.515625 -3.4375 C 0.515625 -4.113281 0.648438 -4.722656 0.921875 -5.265625 C 1.191406 -5.816406 1.566406 -6.242188 2.046875 -6.546875 C 2.523438 -6.847656 3.050781 -7 3.625 -7 C 4.09375 -7 4.523438 -6.898438 4.921875 -6.703125 C 5.316406 -6.515625 5.628906 -6.273438 5.859375 -5.984375 L 5.859375 -6.296875 C 5.859375 -6.484375 5.914062 -6.632812 6.03125 -6.75 C 6.144531 -6.875 6.296875 -6.9375 6.484375 -6.9375 Z M 3.8125 -1.015625 C 4.21875 -1.015625 4.578125 -1.117188 4.890625 -1.328125 C 5.210938 -1.535156 5.460938 -1.820312 5.640625 -2.1875 C 5.828125 -2.5625 5.921875 -2.976562 5.921875 -3.4375 C 5.921875 -3.882812 5.828125 -4.289062 5.640625 -4.65625 C 5.460938 -5.03125 5.210938 -5.320312 4.890625 -5.53125 C 4.578125 -5.75 4.21875 -5.859375 3.8125 -5.859375 C 3.40625 -5.859375 3.039062 -5.75 2.71875 -5.53125 C 2.40625 -5.320312 2.160156 -5.035156 1.984375 -4.671875 C 1.804688 -4.304688 1.71875 -3.894531 1.71875 -3.4375 C 1.71875 -2.976562 1.804688 -2.5625 1.984375 -2.1875 C 2.160156 -1.820312 2.40625 -1.535156 2.71875 -1.328125 C 3.039062 -1.117188 3.40625 -1.015625 3.8125 -1.015625 Z M 3.8125 -1.015625 "/></g></g></g><g fill="#ffffff" fill-opacity="1"><g transform="translate(258.471383, 152.05771)"><g><path d="M 2.78125 -5.625 L 2.78125 -1.734375 C 2.78125 -1.296875 2.976562 -1.078125 3.375 -1.078125 C 3.4375 -1.078125 3.519531 -1.09375 3.625 -1.125 C 3.726562 -1.15625 3.804688 -1.171875 3.859375 -1.171875 C 3.972656 -1.171875 4.066406 -1.125 4.140625 -1.03125 C 4.222656 -0.9375 4.265625 -0.816406 4.265625 -0.671875 C 4.265625 -0.484375 4.160156 -0.320312 3.953125 -0.1875 C 3.742188 -0.0625 3.507812 0 3.25 0 C 2.96875 0 2.707031 -0.03125 2.46875 -0.09375 C 2.226562 -0.15625 2.015625 -0.304688 1.828125 -0.546875 C 1.640625 -0.796875 1.546875 -1.175781 1.546875 -1.6875 L 1.546875 -5.625 L 0.78125 -5.625 C 0.613281 -5.625 0.472656 -5.675781 0.359375 -5.78125 C 0.253906 -5.894531 0.203125 -6.035156 0.203125 -6.203125 C 0.203125 -6.367188 0.253906 -6.503906 0.359375 -6.609375 C 0.472656 -6.710938 0.613281 -6.765625 0.78125 -6.765625 L 1.546875 -6.765625 L 1.546875 -7.859375 C 1.546875 -8.035156 1.601562 -8.179688 1.71875 -8.296875 C 1.832031 -8.421875 1.984375 -8.484375 2.171875 -8.484375 C 2.335938 -8.484375 2.476562 -8.421875 2.59375 -8.296875 C 2.71875 -8.179688 2.78125 -8.035156 2.78125 -7.859375 L 2.78125 -6.765625 L 3.859375 -6.765625 C 4.023438 -6.765625 4.160156 -6.707031 4.265625 -6.59375 C 4.378906 -6.488281 4.4375 -6.351562 4.4375 -6.1875 C 4.4375 -6.019531 4.378906 -5.882812 4.265625 -5.78125 C 4.160156 -5.675781 4.023438 -5.625 3.859375 -5.625 Z M 2.78125 -5.625 "/></g></g></g><g fill="#ffffff" fill-opacity="1"><g transform="translate(265.133498, 152.05771)"><g><path d="M 6.9375 -3.6875 C 6.925781 -3.53125 6.859375 -3.394531 6.734375 -3.28125 C 6.617188 -3.175781 6.476562 -3.125 6.3125 -3.125 L 1.71875 -3.125 C 1.769531 -2.488281 2.003906 -1.976562 2.421875 -1.59375 C 2.847656 -1.207031 3.367188 -1.015625 3.984375 -1.015625 C 4.398438 -1.015625 4.738281 -1.078125 5 -1.203125 C 5.257812 -1.328125 5.488281 -1.484375 5.6875 -1.671875 C 5.820312 -1.753906 5.953125 -1.796875 6.078125 -1.796875 C 6.222656 -1.796875 6.34375 -1.738281 6.4375 -1.625 C 6.539062 -1.519531 6.59375 -1.398438 6.59375 -1.265625 C 6.59375 -1.085938 6.503906 -0.921875 6.328125 -0.765625 C 6.078125 -0.515625 5.742188 -0.300781 5.328125 -0.125 C 4.910156 0.0390625 4.484375 0.125 4.046875 0.125 C 3.335938 0.125 2.71875 -0.0195312 2.1875 -0.3125 C 1.65625 -0.601562 1.242188 -1.015625 0.953125 -1.546875 C 0.660156 -2.078125 0.515625 -2.679688 0.515625 -3.359375 C 0.515625 -4.085938 0.660156 -4.726562 0.953125 -5.28125 C 1.253906 -5.832031 1.648438 -6.253906 2.140625 -6.546875 C 2.640625 -6.847656 3.171875 -7 3.734375 -7 C 4.296875 -7 4.816406 -6.851562 5.296875 -6.5625 C 5.785156 -6.28125 6.175781 -5.882812 6.46875 -5.375 C 6.769531 -4.875 6.925781 -4.3125 6.9375 -3.6875 Z M 3.734375 -5.859375 C 3.242188 -5.859375 2.820312 -5.71875 2.46875 -5.4375 C 2.113281 -5.164062 1.878906 -4.742188 1.765625 -4.171875 L 5.609375 -4.171875 L 5.609375 -4.265625 C 5.566406 -4.734375 5.359375 -5.113281 4.984375 -5.40625 C 4.617188 -5.707031 4.203125 -5.859375 3.734375 -5.859375 Z M 3.734375 -5.859375 "/></g></g></g><g fill="#ffffff" fill-opacity="1"><g transform="translate(274.277175, 152.05771)"><g><path d="M 1.375 -0.015625 C 1.164062 -0.015625 1.003906 -0.0703125 0.890625 -0.1875 C 0.785156 -0.300781 0.734375 -0.460938 0.734375 -0.671875 L 0.734375 -0.921875 C 0.734375 -1.128906 0.785156 -1.289062 0.890625 -1.40625 C 1.003906 -1.519531 1.164062 -1.578125 1.375 -1.578125 L 1.5 -1.578125 C 1.71875 -1.578125 1.878906 -1.519531 1.984375 -1.40625 C 2.097656 -1.289062 2.15625 -1.128906 2.15625 -0.921875 L 2.15625 -0.671875 C 2.15625 -0.234375 1.9375 -0.015625 1.5 -0.015625 Z M 1.375 -0.015625 "/></g></g></g><g fill="#ffffff" fill-opacity="1"><g transform="translate(278.862603, 152.05771)"><g/></g></g><g fill="#ffffff" fill-opacity="1"><g transform="translate(284.179439, 152.05771)"><g><path d="M 7.609375 -8.609375 C 7.816406 -8.492188 7.921875 -8.316406 7.921875 -8.078125 C 7.921875 -7.921875 7.867188 -7.78125 7.765625 -7.65625 C 7.660156 -7.519531 7.515625 -7.453125 7.328125 -7.453125 C 7.203125 -7.453125 7.082031 -7.476562 6.96875 -7.53125 C 6.4375 -7.84375 5.851562 -8 5.21875 -8 C 4.570312 -8 4 -7.851562 3.5 -7.5625 C 3 -7.269531 2.609375 -6.863281 2.328125 -6.34375 C 2.046875 -5.832031 1.90625 -5.242188 1.90625 -4.578125 C 1.90625 -3.847656 2.046875 -3.222656 2.328125 -2.703125 C 2.617188 -2.179688 3.015625 -1.78125 3.515625 -1.5 C 4.023438 -1.226562 4.59375 -1.09375 5.21875 -1.09375 C 5.863281 -1.09375 6.445312 -1.25 6.96875 -1.5625 C 7.070312 -1.613281 7.1875 -1.640625 7.3125 -1.640625 C 7.507812 -1.640625 7.660156 -1.566406 7.765625 -1.421875 C 7.867188 -1.296875 7.921875 -1.15625 7.921875 -1 C 7.921875 -0.894531 7.894531 -0.796875 7.84375 -0.703125 C 7.789062 -0.617188 7.710938 -0.550781 7.609375 -0.5 C 7.273438 -0.300781 6.894531 -0.144531 6.46875 -0.03125 C 6.050781 0.0703125 5.632812 0.125 5.21875 0.125 C 4.375 0.125 3.597656 -0.0625 2.890625 -0.4375 C 2.179688 -0.8125 1.613281 -1.351562 1.1875 -2.0625 C 0.769531 -2.78125 0.5625 -3.617188 0.5625 -4.578125 C 0.5625 -5.453125 0.765625 -6.242188 1.171875 -6.953125 C 1.578125 -7.660156 2.132812 -8.21875 2.84375 -8.625 C 3.550781 -9.03125 4.34375 -9.234375 5.21875 -9.234375 C 6.0625 -9.234375 6.859375 -9.023438 7.609375 -8.609375 Z M 7.609375 -8.609375 "/></g></g></g><g fill="#ffffff" fill-opacity="1"><g transform="translate(294.211268, 152.05771)"><g><path d="M 4.34375 -7 C 4.5625 -7 4.753906 -6.941406 4.921875 -6.828125 C 5.085938 -6.710938 5.171875 -6.566406 5.171875 -6.390625 C 5.171875 -6.179688 5.113281 -6.019531 5 -5.90625 C 4.894531 -5.800781 4.765625 -5.75 4.609375 -5.75 C 4.535156 -5.75 4.421875 -5.773438 4.265625 -5.828125 C 4.078125 -5.890625 3.929688 -5.921875 3.828125 -5.921875 C 3.554688 -5.921875 3.289062 -5.828125 3.03125 -5.640625 C 2.78125 -5.453125 2.570312 -5.191406 2.40625 -4.859375 C 2.25 -4.535156 2.171875 -4.175781 2.171875 -3.78125 L 2.171875 -0.625 C 2.171875 -0.445312 2.109375 -0.296875 1.984375 -0.171875 C 1.867188 -0.0546875 1.722656 0 1.546875 0 C 1.359375 0 1.207031 -0.0546875 1.09375 -0.171875 C 0.976562 -0.296875 0.921875 -0.445312 0.921875 -0.625 L 0.921875 -6.21875 C 0.921875 -6.394531 0.976562 -6.539062 1.09375 -6.65625 C 1.21875 -6.78125 1.367188 -6.84375 1.546875 -6.84375 C 1.722656 -6.84375 1.867188 -6.78125 1.984375 -6.65625 C 2.109375 -6.539062 2.171875 -6.394531 2.171875 -6.21875 L 2.171875 -5.546875 C 2.359375 -5.972656 2.644531 -6.316406 3.03125 -6.578125 C 3.414062 -6.847656 3.851562 -6.988281 4.34375 -7 Z M 4.34375 -7 "/></g></g></g><g fill="#ffffff" fill-opacity="1"><g transform="translate(301.304391, 152.05771)"><g><path d="M 6.9375 -3.6875 C 6.925781 -3.53125 6.859375 -3.394531 6.734375 -3.28125 C 6.617188 -3.175781 6.476562 -3.125 6.3125 -3.125 L 1.71875 -3.125 C 1.769531 -2.488281 2.003906 -1.976562 2.421875 -1.59375 C 2.847656 -1.207031 3.367188 -1.015625 3.984375 -1.015625 C 4.398438 -1.015625 4.738281 -1.078125 5 -1.203125 C 5.257812 -1.328125 5.488281 -1.484375 5.6875 -1.671875 C 5.820312 -1.753906 5.953125 -1.796875 6.078125 -1.796875 C 6.222656 -1.796875 6.34375 -1.738281 6.4375 -1.625 C 6.539062 -1.519531 6.59375 -1.398438 6.59375 -1.265625 C 6.59375 -1.085938 6.503906 -0.921875 6.328125 -0.765625 C 6.078125 -0.515625 5.742188 -0.300781 5.328125 -0.125 C 4.910156 0.0390625 4.484375 0.125 4.046875 0.125 C 3.335938 0.125 2.71875 -0.0195312 2.1875 -0.3125 C 1.65625 -0.601562 1.242188 -1.015625 0.953125 -1.546875 C 0.660156 -2.078125 0.515625 -2.679688 0.515625 -3.359375 C 0.515625 -4.085938 0.660156 -4.726562 0.953125 -5.28125 C 1.253906 -5.832031 1.648438 -6.253906 2.140625 -6.546875 C 2.640625 -6.847656 3.171875 -7 3.734375 -7 C 4.296875 -7 4.816406 -6.851562 5.296875 -6.5625 C 5.785156 -6.28125 6.175781 -5.882812 6.46875 -5.375 C 6.769531 -4.875 6.925781 -4.3125 6.9375 -3.6875 Z M 3.734375 -5.859375 C 3.242188 -5.859375 2.820312 -5.71875 2.46875 -5.4375 C 2.113281 -5.164062 1.878906 -4.742188 1.765625 -4.171875 L 5.609375 -4.171875 L 5.609375 -4.265625 C 5.566406 -4.734375 5.359375 -5.113281 4.984375 -5.40625 C 4.617188 -5.707031 4.203125 -5.859375 3.734375 -5.859375 Z M 3.734375 -5.859375 "/></g></g></g><g fill="#ffffff" fill-opacity="1"><g transform="translate(310.448069, 152.05771)"><g><path d="M 6.484375 -6.9375 C 6.660156 -6.9375 6.804688 -6.875 6.921875 -6.75 C 7.046875 -6.632812 7.109375 -6.484375 7.109375 -6.296875 L 7.109375 -0.625 C 7.109375 -0.445312 7.046875 -0.296875 6.921875 -0.171875 C 6.804688 -0.0546875 6.660156 0 6.484375 0 C 6.296875 0 6.144531 -0.0546875 6.03125 -0.171875 C 5.914062 -0.296875 5.859375 -0.445312 5.859375 -0.625 L 5.859375 -0.96875 C 5.640625 -0.664062 5.332031 -0.40625 4.9375 -0.1875 C 4.539062 0.0195312 4.117188 0.125 3.671875 0.125 C 3.078125 0.125 2.535156 -0.0234375 2.046875 -0.328125 C 1.566406 -0.628906 1.191406 -1.050781 0.921875 -1.59375 C 0.648438 -2.144531 0.515625 -2.757812 0.515625 -3.4375 C 0.515625 -4.113281 0.648438 -4.722656 0.921875 -5.265625 C 1.191406 -5.816406 1.566406 -6.242188 2.046875 -6.546875 C 2.523438 -6.847656 3.050781 -7 3.625 -7 C 4.09375 -7 4.523438 -6.898438 4.921875 -6.703125 C 5.316406 -6.515625 5.628906 -6.273438 5.859375 -5.984375 L 5.859375 -6.296875 C 5.859375 -6.484375 5.914062 -6.632812 6.03125 -6.75 C 6.144531 -6.875 6.296875 -6.9375 6.484375 -6.9375 Z M 3.8125 -1.015625 C 4.21875 -1.015625 4.578125 -1.117188 4.890625 -1.328125 C 5.210938 -1.535156 5.460938 -1.820312 5.640625 -2.1875 C 5.828125 -2.5625 5.921875 -2.976562 5.921875 -3.4375 C 5.921875 -3.882812 5.828125 -4.289062 5.640625 -4.65625 C 5.460938 -5.03125 5.210938 -5.320312 4.890625 -5.53125 C 4.578125 -5.75 4.21875 -5.859375 3.8125 -5.859375 C 3.40625 -5.859375 3.039062 -5.75 2.71875 -5.53125 C 2.40625 -5.320312 2.160156 -5.035156 1.984375 -4.671875 C 1.804688 -4.304688 1.71875 -3.894531 1.71875 -3.4375 C 1.71875 -2.976562 1.804688 -2.5625 1.984375 -2.1875 C 2.160156 -1.820312 2.40625 -1.535156 2.71875 -1.328125 C 3.039062 -1.117188 3.40625 -1.015625 3.8125 -1.015625 Z M 3.8125 -1.015625 "/></g></g></g><g fill="#ffffff" fill-opacity="1"><g transform="translate(320.166439, 152.05771)"><g><path d="M 2.78125 -5.625 L 2.78125 -1.734375 C 2.78125 -1.296875 2.976562 -1.078125 3.375 -1.078125 C 3.4375 -1.078125 3.519531 -1.09375 3.625 -1.125 C 3.726562 -1.15625 3.804688 -1.171875 3.859375 -1.171875 C 3.972656 -1.171875 4.066406 -1.125 4.140625 -1.03125 C 4.222656 -0.9375 4.265625 -0.816406 4.265625 -0.671875 C 4.265625 -0.484375 4.160156 -0.320312 3.953125 -0.1875 C 3.742188 -0.0625 3.507812 0 3.25 0 C 2.96875 0 2.707031 -0.03125 2.46875 -0.09375 C 2.226562 -0.15625 2.015625 -0.304688 1.828125 -0.546875 C 1.640625 -0.796875 1.546875 -1.175781 1.546875 -1.6875 L 1.546875 -5.625 L 0.78125 -5.625 C 0.613281 -5.625 0.472656 -5.675781 0.359375 -5.78125 C 0.253906 -5.894531 0.203125 -6.035156 0.203125 -6.203125 C 0.203125 -6.367188 0.253906 -6.503906 0.359375 -6.609375 C 0.472656 -6.710938 0.613281 -6.765625 0.78125 -6.765625 L 1.546875 -6.765625 L 1.546875 -7.859375 C 1.546875 -8.035156 1.601562 -8.179688 1.71875 -8.296875 C 1.832031 -8.421875 1.984375 -8.484375 2.171875 -8.484375 C 2.335938 -8.484375 2.476562 -8.421875 2.59375 -8.296875 C 2.71875 -8.179688 2.78125 -8.035156 2.78125 -7.859375 L 2.78125 -6.765625 L 3.859375 -6.765625 C 4.023438 -6.765625 4.160156 -6.707031 4.265625 -6.59375 C 4.378906 -6.488281 4.4375 -6.351562 4.4375 -6.1875 C 4.4375 -6.019531 4.378906 -5.882812 4.265625 -5.78125 C 4.160156 -5.675781 4.023438 -5.625 3.859375 -5.625 Z M 2.78125 -5.625 "/></g></g></g><g fill="#ffffff" fill-opacity="1"><g transform="translate(326.828554, 152.05771)"><g><path d="M 6.9375 -3.6875 C 6.925781 -3.53125 6.859375 -3.394531 6.734375 -3.28125 C 6.617188 -3.175781 6.476562 -3.125 6.3125 -3.125 L 1.71875 -3.125 C 1.769531 -2.488281 2.003906 -1.976562 2.421875 -1.59375 C 2.847656 -1.207031 3.367188 -1.015625 3.984375 -1.015625 C 4.398438 -1.015625 4.738281 -1.078125 5 -1.203125 C 5.257812 -1.328125 5.488281 -1.484375 5.6875 -1.671875 C 5.820312 -1.753906 5.953125 -1.796875 6.078125 -1.796875 C 6.222656 -1.796875 6.34375 -1.738281 6.4375 -1.625 C 6.539062 -1.519531 6.59375 -1.398438 6.59375 -1.265625 C 6.59375 -1.085938 6.503906 -0.921875 6.328125 -0.765625 C 6.078125 -0.515625 5.742188 -0.300781 5.328125 -0.125 C 4.910156 0.0390625 4.484375 0.125 4.046875 0.125 C 3.335938 0.125 2.71875 -0.0195312 2.1875 -0.3125 C 1.65625 -0.601562 1.242188 -1.015625 0.953125 -1.546875 C 0.660156 -2.078125 0.515625 -2.679688 0.515625 -3.359375 C 0.515625 -4.085938 0.660156 -4.726562 0.953125 -5.28125 C 1.253906 -5.832031 1.648438 -6.253906 2.140625 -6.546875 C 2.640625 -6.847656 3.171875 -7 3.734375 -7 C 4.296875 -7 4.816406 -6.851562 5.296875 -6.5625 C 5.785156 -6.28125 6.175781 -5.882812 6.46875 -5.375 C 6.769531 -4.875 6.925781 -4.3125 6.9375 -3.6875 Z M 3.734375 -5.859375 C 3.242188 -5.859375 2.820312 -5.71875 2.46875 -5.4375 C 2.113281 -5.164062 1.878906 -4.742188 1.765625 -4.171875 L 5.609375 -4.171875 L 5.609375 -4.265625 C 5.566406 -4.734375 5.359375 -5.113281 4.984375 -5.40625 C 4.617188 -5.707031 4.203125 -5.859375 3.734375 -5.859375 Z M 3.734375 -5.859375 "/></g></g></g><g fill="#ffffff" fill-opacity="1"><g transform="translate(335.972232, 152.05771)"><g><path d="M 1.375 -0.015625 C 1.164062 -0.015625 1.003906 -0.0703125 0.890625 -0.1875 C 0.785156 -0.300781 0.734375 -0.460938 0.734375 -0.671875 L 0.734375 -0.921875 C 0.734375 -1.128906 0.785156 -1.289062 0.890625 -1.40625 C 1.003906 -1.519531 1.164062 -1.578125 1.375 -1.578125 L 1.5 -1.578125 C 1.71875 -1.578125 1.878906 -1.519531 1.984375 -1.40625 C 2.097656 -1.289062 2.15625 -1.128906 2.15625 -0.921875 L 2.15625 -0.671875 C 2.15625 -0.234375 1.9375 -0.015625 1.5 -0.015625 Z M 1.375 -0.015625 "/></g></g></g><g clip-path="url(#6a3a13cebb)"><path fill="#50fa7b" d="M 56.652344 154.75 C 56.652344 154.941406 56.585938 155.105469 56.449219 155.242188 C 56.3125 155.378906 56.148438 155.445312 55.957031 155.445312 C 55.761719 155.445312 55.597656 155.378906 55.460938 155.242188 C 55.328125 155.105469 55.257812 154.941406 55.257812 154.75 C 55.246094 154.136719 55.203125 153.523438 55.132812 152.914062 C 55.0625 152.304688 54.960938 151.699219 54.832031 151.097656 C 54.703125 150.5 54.542969 149.90625 54.355469 149.324219 C 54.167969 148.738281 53.953125 148.164062 53.710938 147.601562 C 53.46875 147.035156 53.199219 146.484375 52.902344 145.949219 C 52.605469 145.410156 52.285156 144.890625 51.9375 144.382812 C 51.589844 143.875 51.21875 143.386719 50.824219 142.917969 C 50.429688 142.449219 50.011719 141.996094 49.574219 141.566406 C 49.136719 141.136719 48.679688 140.730469 48.199219 140.34375 C 47.722656 139.960938 47.226562 139.597656 46.714844 139.261719 C 46.203125 138.921875 45.675781 138.609375 45.132812 138.324219 C 44.589844 138.039062 44.03125 137.78125 43.464844 137.546875 C 42.894531 137.316406 42.316406 137.109375 41.730469 136.933594 C 41.140625 136.757812 40.546875 136.613281 39.945312 136.492188 C 39.339844 136.375 38.734375 136.285156 38.125 136.226562 C 37.511719 136.167969 36.902344 136.136719 36.285156 136.136719 C 35.671875 136.136719 35.058594 136.167969 34.449219 136.226562 C 33.839844 136.285156 33.230469 136.375 32.628906 136.492188 C 32.027344 136.613281 31.433594 136.757812 30.84375 136.933594 C 30.253906 137.109375 29.675781 137.316406 29.109375 137.546875 C 28.539062 137.78125 27.984375 138.039062 27.441406 138.324219 C 26.898438 138.609375 26.371094 138.921875 25.859375 139.261719 C 25.34375 139.597656 24.851562 139.960938 24.371094 140.34375 C 23.894531 140.730469 23.4375 141.136719 23 141.566406 C 22.558594 141.996094 22.144531 142.449219 21.75 142.917969 C 21.355469 143.386719 20.984375 143.875 20.636719 144.382812 C 20.289062 144.890625 19.96875 145.410156 19.671875 145.949219 C 19.375 146.484375 19.105469 147.035156 18.863281 147.601562 C 18.617188 148.164062 18.402344 148.738281 18.214844 149.324219 C 18.027344 149.90625 17.871094 150.5 17.742188 151.097656 C 17.609375 151.699219 17.511719 152.304688 17.4375 152.914062 C 17.367188 153.523438 17.328125 154.136719 17.316406 154.75 C 17.316406 154.941406 17.246094 155.105469 17.109375 155.242188 C 16.972656 155.378906 16.808594 155.445312 16.617188 155.445312 C 16.425781 155.445312 16.261719 155.378906 16.125 155.242188 C 15.988281 155.105469 15.921875 154.941406 15.921875 154.75 C 15.933594 154.089844 15.976562 153.433594 16.050781 152.777344 C 16.128906 152.125 16.234375 151.472656 16.375 150.828125 C 16.515625 150.183594 16.683594 149.546875 16.886719 148.921875 C 17.085938 148.292969 17.316406 147.675781 17.578125 147.070312 C 17.839844 146.464844 18.128906 145.875 18.445312 145.296875 C 18.761719 144.71875 19.109375 144.15625 19.480469 143.613281 C 19.855469 143.070312 20.253906 142.546875 20.675781 142.039062 C 21.097656 141.535156 21.546875 141.050781 22.015625 140.589844 C 22.488281 140.128906 22.980469 139.691406 23.492188 139.277344 C 24.003906 138.863281 24.535156 138.472656 25.085938 138.109375 C 25.636719 137.75 26.203125 137.414062 26.789062 137.105469 C 27.371094 136.800781 27.96875 136.519531 28.578125 136.269531 C 29.1875 136.019531 29.808594 135.800781 30.441406 135.613281 C 31.074219 135.421875 31.710938 135.265625 32.359375 135.136719 C 33.003906 135.011719 33.65625 134.914062 34.3125 134.851562 C 34.96875 134.789062 35.628906 134.757812 36.285156 134.757812 C 36.945312 134.757812 37.605469 134.789062 38.257812 134.851562 C 38.914062 134.914062 39.566406 135.011719 40.214844 135.136719 C 40.859375 135.265625 41.5 135.421875 42.132812 135.613281 C 42.761719 135.800781 43.382812 136.019531 43.996094 136.269531 C 44.605469 136.519531 45.203125 136.800781 45.785156 137.105469 C 46.367188 137.414062 46.933594 137.75 47.484375 138.109375 C 48.035156 138.472656 48.566406 138.863281 49.082031 139.277344 C 49.59375 139.691406 50.085938 140.128906 50.554688 140.589844 C 51.027344 141.050781 51.472656 141.535156 51.898438 142.039062 C 52.320312 142.546875 52.71875 143.070312 53.089844 143.613281 C 53.464844 144.15625 53.808594 144.71875 54.128906 145.296875 C 54.445312 145.875 54.734375 146.464844 54.996094 147.070312 C 55.257812 147.675781 55.488281 148.292969 55.6875 148.921875 C 55.890625 149.546875 56.058594 150.183594 56.199219 150.828125 C 56.335938 151.472656 56.445312 152.125 56.519531 152.777344 C 56.597656 153.433594 56.640625 154.089844 56.652344 154.75 Z M 100.425781 133.304688 C 99.761719 133.308594 99.101562 133.339844 98.441406 133.40625 C 97.78125 133.472656 97.125 133.570312 96.472656 133.703125 C 95.824219 133.832031 95.179688 133.992188 94.546875 134.1875 C 93.910156 134.378906 93.289062 134.601562 92.675781 134.855469 C 92.0625 135.109375 91.460938 135.394531 90.875 135.707031 C 90.289062 136.015625 89.722656 136.359375 89.167969 136.726562 C 88.617188 137.09375 88.082031 137.484375 87.570312 137.90625 C 87.054688 138.324219 86.5625 138.769531 86.09375 139.238281 C 85.621094 139.703125 85.175781 140.191406 84.75 140.703125 C 84.328125 141.214844 83.929688 141.746094 83.558594 142.296875 C 83.1875 142.847656 82.84375 143.414062 82.527344 143.996094 C 82.210938 144.578125 81.925781 145.175781 81.667969 145.789062 C 81.410156 146.398438 81.183594 147.023438 80.984375 147.65625 C 80.789062 148.289062 80.621094 148.929688 80.488281 149.578125 C 80.351562 150.230469 80.25 150.882812 80.179688 151.542969 C 80.109375 152.203125 80.070312 152.867188 80.0625 153.527344 C 80.0625 153.722656 80.132812 153.886719 80.265625 154.023438 C 80.402344 154.15625 80.566406 154.226562 80.761719 154.226562 C 80.953125 154.226562 81.117188 154.15625 81.253906 154.023438 C 81.390625 153.886719 81.457031 153.722656 81.457031 153.527344 C 81.46875 152.914062 81.511719 152.304688 81.582031 151.695312 C 81.652344 151.082031 81.753906 150.480469 81.882812 149.878906 C 82.011719 149.277344 82.171875 148.6875 82.359375 148.101562 C 82.546875 147.519531 82.761719 146.945312 83.003906 146.378906 C 83.25 145.816406 83.519531 145.265625 83.8125 144.726562 C 84.109375 144.191406 84.433594 143.667969 84.78125 143.164062 C 85.125 142.65625 85.496094 142.167969 85.890625 141.699219 C 86.285156 141.226562 86.703125 140.777344 87.140625 140.347656 C 87.578125 139.917969 88.039062 139.507812 88.515625 139.125 C 88.992188 138.738281 89.488281 138.378906 90 138.039062 C 90.515625 137.703125 91.042969 137.390625 91.585938 137.105469 C 92.128906 136.820312 92.683594 136.558594 93.253906 136.328125 C 93.820312 136.09375 94.398438 135.890625 94.988281 135.714844 C 95.574219 135.539062 96.171875 135.390625 96.773438 135.273438 C 97.375 135.15625 97.980469 135.066406 98.59375 135.007812 C 99.203125 134.945312 99.816406 134.917969 100.429688 134.917969 C 101.042969 134.917969 101.65625 134.945312 102.265625 135.007812 C 102.878906 135.066406 103.484375 135.15625 104.085938 135.273438 C 104.6875 135.390625 105.285156 135.539062 105.871094 135.714844 C 106.460938 135.890625 107.039062 136.09375 107.605469 136.328125 C 108.175781 136.558594 108.730469 136.820312 109.273438 137.105469 C 109.816406 137.390625 110.34375 137.703125 110.859375 138.039062 C 111.371094 138.378906 111.867188 138.738281 112.34375 139.125 C 112.820312 139.507812 113.28125 139.917969 113.71875 140.347656 C 114.15625 140.777344 114.574219 141.226562 114.96875 141.699219 C 115.363281 142.167969 115.730469 142.65625 116.078125 143.164062 C 116.425781 143.667969 116.75 144.191406 117.046875 144.726562 C 117.339844 145.265625 117.609375 145.816406 117.855469 146.378906 C 118.097656 146.945312 118.3125 147.519531 118.5 148.101562 C 118.6875 148.6875 118.84375 149.277344 118.976562 149.878906 C 119.105469 150.480469 119.207031 151.082031 119.277344 151.695312 C 119.347656 152.304688 119.390625 152.914062 119.402344 153.527344 C 119.402344 153.722656 119.46875 153.886719 119.605469 154.023438 C 119.742188 154.15625 119.90625 154.226562 120.097656 154.226562 C 120.292969 154.226562 120.457031 154.15625 120.589844 154.023438 C 120.726562 153.886719 120.796875 153.722656 120.796875 153.527344 C 120.789062 152.863281 120.75 152.203125 120.679688 151.542969 C 120.609375 150.882812 120.507812 150.230469 120.371094 149.578125 C 120.238281 148.929688 120.074219 148.285156 119.875 147.652344 C 119.679688 147.019531 119.449219 146.398438 119.191406 145.785156 C 118.933594 145.171875 118.648438 144.574219 118.332031 143.992188 C 118.015625 143.410156 117.671875 142.84375 117.300781 142.292969 C 116.929688 141.742188 116.53125 141.210938 116.109375 140.699219 C 115.683594 140.1875 115.238281 139.699219 114.765625 139.230469 C 114.296875 138.765625 113.800781 138.320312 113.289062 137.902344 C 112.773438 137.480469 112.242188 137.089844 111.6875 136.71875 C 111.136719 136.351562 110.566406 136.011719 109.980469 135.703125 C 109.394531 135.390625 108.792969 135.105469 108.179688 134.851562 C 107.566406 134.597656 106.945312 134.375 106.308594 134.183594 C 105.671875 133.992188 105.03125 133.828125 104.378906 133.699219 C 103.726562 133.570312 103.074219 133.472656 102.414062 133.40625 C 101.753906 133.339844 101.089844 133.308594 100.425781 133.304688 Z M 54.992188 83.375 C 54.992188 82.527344 55.074219 81.691406 55.242188 80.859375 C 55.40625 80.03125 55.652344 79.222656 55.972656 78.441406 C 56.296875 77.660156 56.695312 76.917969 57.164062 76.214844 C 57.636719 75.511719 58.171875 74.859375 58.769531 74.261719 C 59.367188 73.664062 60.019531 73.128906 60.722656 72.660156 C 61.425781 72.1875 62.167969 71.792969 62.949219 71.46875 C 63.730469 71.144531 64.539062 70.898438 65.367188 70.734375 C 66.199219 70.570312 67.035156 70.488281 67.882812 70.488281 C 68.730469 70.488281 69.566406 70.570312 70.398438 70.734375 C 71.226562 70.902344 72.03125 71.144531 72.816406 71.46875 C 73.597656 71.792969 74.339844 72.191406 75.042969 72.660156 C 75.746094 73.132812 76.398438 73.664062 76.996094 74.265625 C 77.59375 74.863281 78.128906 75.515625 78.597656 76.21875 C 79.066406 76.921875 79.464844 77.664062 79.789062 78.445312 C 80.113281 79.230469 80.355469 80.035156 80.519531 80.863281 C 80.6875 81.695312 80.769531 82.53125 80.769531 83.378906 C 80.765625 84.226562 80.683594 85.0625 80.519531 85.894531 C 80.355469 86.722656 80.109375 87.53125 79.785156 88.3125 C 79.460938 89.09375 79.0625 89.835938 78.59375 90.539062 C 78.121094 91.242188 77.585938 91.894531 76.988281 92.492188 C 76.390625 93.089844 75.738281 93.625 75.035156 94.09375 C 74.332031 94.5625 73.589844 94.960938 72.804688 95.285156 C 72.023438 95.605469 71.21875 95.851562 70.386719 96.015625 C 69.558594 96.179688 68.71875 96.261719 67.875 96.261719 C 67.027344 96.261719 66.191406 96.175781 65.359375 96.011719 C 64.53125 95.84375 63.726562 95.597656 62.945312 95.273438 C 62.164062 94.949219 61.421875 94.554688 60.71875 94.082031 C 60.015625 93.613281 59.367188 93.078125 58.769531 92.480469 C 58.171875 91.882812 57.636719 91.230469 57.167969 90.527344 C 56.699219 89.824219 56.300781 89.082031 55.976562 88.300781 C 55.652344 87.519531 55.410156 86.714844 55.242188 85.886719 C 55.078125 85.058594 54.992188 84.21875 54.992188 83.375 Z M 56.386719 83.375 C 56.386719 84.128906 56.460938 84.875 56.609375 85.617188 C 56.757812 86.355469 56.972656 87.074219 57.261719 87.773438 C 57.550781 88.46875 57.90625 89.132812 58.324219 89.761719 C 58.746094 90.386719 59.222656 90.96875 59.753906 91.5 C 60.289062 92.035156 60.871094 92.511719 61.496094 92.929688 C 62.125 93.351562 62.785156 93.703125 63.484375 93.992188 C 64.179688 94.28125 64.898438 94.5 65.640625 94.648438 C 66.378906 94.792969 67.128906 94.867188 67.882812 94.867188 C 68.636719 94.867188 69.386719 94.792969 70.125 94.644531 C 70.863281 94.5 71.582031 94.28125 72.28125 93.992188 C 72.976562 93.703125 73.640625 93.347656 74.269531 92.929688 C 74.894531 92.507812 75.476562 92.03125 76.007812 91.5 C 76.542969 90.964844 77.019531 90.382812 77.4375 89.757812 C 77.855469 89.128906 78.210938 88.464844 78.5 87.769531 C 78.789062 87.070312 79.007812 86.351562 79.152344 85.613281 C 79.300781 84.871094 79.375 84.125 79.371094 83.371094 C 79.371094 82.617188 79.296875 81.867188 79.152344 81.128906 C 79.003906 80.386719 78.785156 79.667969 78.496094 78.972656 C 78.207031 78.273438 77.851562 77.613281 77.433594 76.984375 C 77.011719 76.359375 76.535156 75.777344 76.003906 75.242188 C 75.46875 74.710938 74.886719 74.234375 74.261719 73.816406 C 73.632812 73.398438 72.96875 73.042969 72.273438 72.753906 C 71.574219 72.464844 70.855469 72.25 70.117188 72.101562 C 69.375 71.953125 68.628906 71.882812 67.875 71.882812 C 67.121094 71.882812 66.371094 71.957031 65.632812 72.105469 C 64.894531 72.253906 64.175781 72.472656 63.480469 72.761719 C 62.78125 73.050781 62.121094 73.402344 61.492188 73.824219 C 60.867188 74.242188 60.285156 74.71875 59.753906 75.253906 C 59.21875 75.785156 58.746094 76.367188 58.324219 76.992188 C 57.90625 77.621094 57.550781 78.28125 57.265625 78.980469 C 56.976562 79.675781 56.757812 80.394531 56.609375 81.132812 C 56.460938 81.875 56.386719 82.621094 56.386719 83.375 Z M 68.117188 99.652344 C 67.5 99.652344 66.882812 99.683594 66.269531 99.746094 C 65.652344 99.808594 65.042969 99.898438 64.4375 100.019531 C 63.832031 100.140625 63.234375 100.292969 62.640625 100.472656 C 62.050781 100.648438 61.46875 100.859375 60.898438 101.09375 C 60.328125 101.332031 59.769531 101.59375 59.222656 101.882812 C 58.679688 102.175781 58.148438 102.492188 57.632812 102.832031 C 57.121094 103.175781 56.621094 103.542969 56.144531 103.933594 C 55.664062 104.324219 55.207031 104.734375 54.769531 105.171875 C 54.328125 105.605469 53.914062 106.0625 53.519531 106.539062 C 53.125 107.015625 52.753906 107.507812 52.410156 108.019531 C 52.0625 108.53125 51.742188 109.058594 51.449219 109.601562 C 51.152344 110.144531 50.886719 110.703125 50.644531 111.269531 C 50.40625 111.839844 50.195312 112.421875 50.007812 113.011719 C 49.824219 113.601562 49.671875 114.199219 49.546875 114.800781 C 49.417969 115.40625 49.324219 116.015625 49.257812 116.632812 C 49.191406 117.246094 49.15625 117.863281 49.148438 118.480469 C 49.144531 118.691406 49.0625 118.867188 48.898438 119.003906 C 48.898438 119.210938 48.898438 119.414062 48.898438 119.625 C 48.898438 120.15625 48.867188 120.683594 48.804688 121.210938 C 48.742188 121.742188 48.644531 122.261719 48.515625 122.777344 C 48.386719 123.292969 48.226562 123.800781 48.035156 124.296875 C 47.847656 124.792969 47.625 125.277344 47.375 125.746094 C 47.125 126.214844 46.84375 126.664062 46.539062 127.101562 C 46.234375 127.535156 45.902344 127.949219 45.542969 128.34375 C 45.1875 128.734375 44.804688 129.105469 44.402344 129.453125 C 44 129.800781 43.578125 130.121094 43.132812 130.414062 C 42.691406 130.707031 42.230469 130.972656 41.753906 131.210938 C 41.28125 131.449219 40.792969 131.65625 40.289062 131.835938 C 39.789062 132.011719 39.277344 132.15625 38.757812 132.273438 C 38.242188 132.386719 37.714844 132.46875 37.1875 132.519531 C 36.65625 132.566406 36.125 132.585938 35.59375 132.566406 C 35.0625 132.550781 34.535156 132.503906 34.011719 132.421875 C 33.484375 132.339844 32.964844 132.226562 32.453125 132.082031 C 31.941406 131.9375 31.441406 131.761719 30.953125 131.554688 C 30.464844 131.347656 29.988281 131.109375 29.527344 130.84375 C 29.066406 130.578125 28.625 130.285156 28.199219 129.964844 C 27.777344 129.644531 27.371094 129.300781 26.992188 128.929688 C 26.609375 128.558594 26.253906 128.167969 25.917969 127.753906 C 25.585938 127.339844 25.277344 126.90625 25 126.453125 C 24.71875 126 24.46875 125.53125 24.246094 125.050781 C 24.023438 124.566406 23.832031 124.070312 23.671875 123.566406 C 23.511719 123.058594 23.382812 122.542969 23.285156 122.019531 C 23.1875 121.496094 23.125 120.96875 23.09375 120.441406 C 23.058594 119.910156 23.058594 119.378906 23.09375 118.847656 C 23.128906 118.316406 23.191406 117.789062 23.292969 117.269531 C 23.390625 116.746094 23.519531 116.230469 23.683594 115.726562 C 23.84375 115.21875 24.035156 114.722656 24.257812 114.242188 C 24.484375 113.757812 24.734375 113.292969 25.015625 112.839844 C 25.296875 112.386719 25.601562 111.957031 25.9375 111.542969 C 26.273438 111.128906 26.628906 110.738281 27.011719 110.367188 C 27.394531 110 27.800781 109.652344 28.222656 109.335938 C 28.648438 109.015625 29.09375 108.722656 29.554688 108.457031 C 30.015625 108.195312 30.488281 107.957031 30.980469 107.753906 C 31.46875 107.546875 31.972656 107.371094 32.484375 107.226562 C 32.996094 107.082031 33.515625 106.972656 34.039062 106.890625 C 34.566406 106.8125 35.09375 106.761719 35.625 106.75 C 36.15625 106.734375 36.6875 106.75 37.214844 106.800781 C 37.746094 106.851562 38.269531 106.9375 38.789062 107.050781 C 39.308594 107.167969 39.816406 107.316406 40.320312 107.492188 C 40.820312 107.671875 41.308594 107.878906 41.78125 108.117188 C 42.257812 108.359375 42.714844 108.625 43.160156 108.921875 C 43.601562 109.214844 44.023438 109.535156 44.425781 109.882812 C 44.828125 110.230469 45.207031 110.601562 45.5625 110.996094 C 45.921875 111.390625 46.25 111.808594 46.554688 112.242188 C 46.863281 112.675781 47.140625 113.128906 47.386719 113.597656 C 47.636719 114.070312 47.859375 114.550781 48.046875 115.046875 C 48.25 113.898438 48.554688 112.773438 48.949219 111.671875 C 49.347656 110.574219 49.839844 109.515625 50.417969 108.5 C 51 107.484375 51.660156 106.527344 52.40625 105.625 C 53.152344 104.726562 53.96875 103.894531 54.859375 103.132812 C 55.746094 102.375 56.691406 101.695312 57.699219 101.097656 C 58.703125 100.5 59.753906 99.992188 60.84375 99.578125 C 61.9375 99.160156 63.058594 98.839844 64.207031 98.617188 C 65.355469 98.394531 66.511719 98.269531 67.679688 98.246094 C 68.851562 98.222656 70.011719 98.300781 71.167969 98.476562 C 72.324219 98.652344 73.457031 98.925781 74.566406 99.296875 C 75.675781 99.667969 76.742188 100.132812 77.773438 100.6875 C 78.800781 101.242188 79.777344 101.882812 80.695312 102.605469 C 81.613281 103.328125 82.464844 104.125 83.246094 104.996094 C 84.027344 105.867188 84.726562 106.796875 85.347656 107.785156 C 85.96875 108.777344 86.5 109.8125 86.945312 110.894531 C 87.386719 111.976562 87.734375 113.089844 87.984375 114.234375 C 88.160156 113.734375 88.363281 113.246094 88.59375 112.769531 C 88.828125 112.292969 89.089844 111.835938 89.378906 111.390625 C 89.667969 110.949219 89.984375 110.527344 90.328125 110.121094 C 90.667969 109.71875 91.035156 109.335938 91.425781 108.976562 C 91.8125 108.617188 92.222656 108.285156 92.652344 107.976562 C 93.082031 107.667969 93.53125 107.386719 93.996094 107.132812 C 94.460938 106.878906 94.9375 106.65625 95.429688 106.460938 C 95.921875 106.265625 96.425781 106.101562 96.9375 105.96875 C 97.453125 105.839844 97.96875 105.738281 98.496094 105.667969 C 99.019531 105.601562 99.546875 105.5625 100.078125 105.5625 C 100.605469 105.558594 101.132812 105.585938 101.660156 105.648438 C 102.183594 105.707031 102.707031 105.800781 103.21875 105.929688 C 103.734375 106.054688 104.238281 106.210938 104.734375 106.398438 C 105.226562 106.585938 105.710938 106.804688 106.179688 107.050781 C 106.644531 107.296875 107.097656 107.570312 107.53125 107.875 C 107.964844 108.175781 108.378906 108.503906 108.773438 108.859375 C 109.167969 109.210938 109.539062 109.589844 109.886719 109.988281 C 110.234375 110.386719 110.554688 110.808594 110.851562 111.246094 C 111.148438 111.683594 111.414062 112.140625 111.65625 112.613281 C 111.894531 113.085938 112.105469 113.570312 112.285156 114.066406 C 112.464844 114.566406 112.613281 115.074219 112.730469 115.589844 C 112.847656 116.105469 112.933594 116.625 112.984375 117.152344 C 113.039062 117.679688 113.058594 118.207031 113.046875 118.738281 C 113.035156 119.265625 112.992188 119.792969 112.914062 120.316406 C 112.835938 120.839844 112.730469 121.359375 112.589844 121.867188 C 112.449219 122.378906 112.277344 122.878906 112.074219 123.367188 C 111.871094 123.855469 111.640625 124.332031 111.378906 124.792969 C 111.121094 125.253906 110.832031 125.695312 110.515625 126.121094 C 110.203125 126.546875 109.859375 126.953125 109.496094 127.335938 C 109.128906 127.71875 108.742188 128.078125 108.335938 128.414062 C 107.925781 128.75 107.496094 129.058594 107.046875 129.339844 C 106.601562 129.625 106.136719 129.878906 105.660156 130.105469 C 105.179688 130.328125 104.691406 130.527344 104.1875 130.691406 C 103.683594 130.855469 103.171875 130.988281 102.652344 131.09375 C 102.132812 131.195312 101.609375 131.265625 101.082031 131.300781 C 100.554688 131.339844 100.023438 131.34375 99.496094 131.316406 C 98.96875 131.289062 98.441406 131.230469 97.921875 131.136719 C 97.398438 131.046875 96.886719 130.921875 96.378906 130.765625 C 95.875 130.613281 95.378906 130.425781 94.898438 130.210938 C 94.414062 129.992188 93.945312 129.746094 93.492188 129.472656 C 93.039062 129.199219 92.605469 128.898438 92.1875 128.570312 C 91.773438 128.242188 91.378906 127.890625 91.007812 127.515625 C 90.632812 127.140625 90.285156 126.742188 89.960938 126.324219 C 89.640625 125.902344 89.34375 125.464844 89.074219 125.011719 C 88.804688 124.554688 88.5625 124.085938 88.351562 123.597656 C 88.140625 123.113281 87.957031 122.617188 87.808594 122.109375 C 87.65625 121.601562 87.539062 121.085938 87.453125 120.566406 C 87.363281 120.042969 87.308594 119.519531 87.289062 118.988281 C 87.132812 118.855469 87.054688 118.683594 87.050781 118.480469 C 87.046875 117.863281 87.007812 117.246094 86.941406 116.632812 C 86.878906 116.019531 86.78125 115.410156 86.65625 114.804688 C 86.53125 114.203125 86.378906 113.605469 86.195312 113.015625 C 86.011719 112.425781 85.800781 111.847656 85.558594 111.277344 C 85.320312 110.710938 85.054688 110.152344 84.757812 109.609375 C 84.464844 109.066406 84.144531 108.539062 83.800781 108.027344 C 83.457031 107.515625 83.085938 107.023438 82.691406 106.546875 C 82.300781 106.070312 81.882812 105.617188 81.445312 105.179688 C 81.007812 104.746094 80.550781 104.332031 80.074219 103.941406 C 79.59375 103.550781 79.097656 103.1875 78.585938 102.84375 C 78.074219 102.5 77.542969 102.183594 77 101.894531 C 76.453125 101.601562 75.898438 101.339844 75.328125 101.101562 C 74.757812 100.867188 74.175781 100.65625 73.585938 100.476562 C 72.996094 100.296875 72.398438 100.144531 71.792969 100.023438 C 71.1875 99.902344 70.578125 99.8125 69.964844 99.75 C 69.351562 99.6875 68.734375 99.652344 68.117188 99.652344 Z M 88.695312 118.425781 C 88.695312 119.179688 88.769531 119.925781 88.917969 120.664062 C 89.066406 121.40625 89.28125 122.125 89.570312 122.820312 C 89.859375 123.519531 90.214844 124.179688 90.632812 124.808594 C 91.050781 125.4375 91.527344 126.015625 92.0625 126.550781 C 92.597656 127.082031 93.175781 127.558594 93.804688 127.980469 C 94.429688 128.398438 95.09375 128.753906 95.792969 129.042969 C 96.488281 129.332031 97.207031 129.546875 97.945312 129.695312 C 98.6875 129.84375 99.433594 129.917969 100.1875 129.917969 C 100.945312 129.917969 101.691406 129.84375 102.429688 129.695312 C 103.171875 129.546875 103.890625 129.332031 104.585938 129.042969 C 105.285156 128.753906 105.945312 128.398438 106.574219 127.980469 C 107.203125 127.558594 107.78125 127.082031 108.316406 126.550781 C 108.847656 126.015625 109.324219 125.4375 109.746094 124.808594 C 110.164062 124.179688 110.519531 123.519531 110.808594 122.820312 C 111.09375 122.125 111.3125 121.40625 111.460938 120.664062 C 111.609375 119.925781 111.679688 119.179688 111.679688 118.425781 C 111.679688 117.667969 111.609375 116.921875 111.460938 116.183594 C 111.3125 115.441406 111.09375 114.722656 110.808594 114.027344 C 110.519531 113.328125 110.164062 112.667969 109.746094 112.039062 C 109.324219 111.410156 108.847656 110.832031 108.316406 110.296875 C 107.78125 109.765625 107.203125 109.289062 106.574219 108.867188 C 105.945312 108.449219 105.285156 108.09375 104.585938 107.804688 C 103.890625 107.515625 103.171875 107.300781 102.429688 107.152344 C 101.691406 107.003906 100.945312 106.929688 100.1875 106.929688 C 99.433594 106.933594 98.6875 107.003906 97.949219 107.152344 C 97.207031 107.300781 96.488281 107.519531 95.792969 107.808594 C 95.09375 108.097656 94.433594 108.449219 93.804688 108.871094 C 93.179688 109.289062 92.597656 109.765625 92.066406 110.300781 C 91.53125 110.832031 91.054688 111.414062 90.636719 112.039062 C 90.214844 112.667969 89.863281 113.328125 89.574219 114.027344 C 89.285156 114.722656 89.066406 115.441406 88.917969 116.183594 C 88.769531 116.921875 88.695312 117.667969 88.695312 118.425781 Z M 47.550781 119.636719 C 47.550781 118.882812 47.480469 118.136719 47.332031 117.394531 C 47.183594 116.65625 46.964844 115.9375 46.675781 115.238281 C 46.390625 114.542969 46.035156 113.878906 45.617188 113.253906 C 45.195312 112.625 44.71875 112.042969 44.1875 111.511719 C 43.652344 110.976562 43.070312 110.5 42.445312 110.082031 C 41.816406 109.664062 41.15625 109.308594 40.457031 109.019531 C 39.761719 108.730469 39.042969 108.511719 38.300781 108.367188 C 37.5625 108.21875 36.816406 108.144531 36.058594 108.144531 C 35.304688 108.144531 34.558594 108.21875 33.816406 108.367188 C 33.078125 108.511719 32.359375 108.730469 31.660156 109.019531 C 30.964844 109.308594 30.300781 109.664062 29.675781 110.082031 C 29.046875 110.5 28.46875 110.976562 27.933594 111.511719 C 27.398438 112.042969 26.921875 112.625 26.503906 113.253906 C 26.085938 113.878906 25.730469 114.542969 25.441406 115.238281 C 25.152344 115.9375 24.933594 116.65625 24.789062 117.394531 C 24.640625 118.136719 24.566406 118.882812 24.566406 119.636719 C 24.566406 120.390625 24.640625 121.140625 24.789062 121.878906 C 24.933594 122.621094 25.152344 123.339844 25.441406 124.035156 C 25.730469 124.730469 26.085938 125.394531 26.503906 126.023438 C 26.921875 126.648438 27.398438 127.230469 27.933594 127.765625 C 28.46875 128.296875 29.046875 128.773438 29.675781 129.191406 C 30.300781 129.613281 30.964844 129.964844 31.660156 130.253906 C 32.359375 130.542969 33.078125 130.761719 33.816406 130.910156 C 34.558594 131.054688 35.304688 131.128906 36.058594 131.128906 C 36.8125 131.128906 37.558594 131.054688 38.296875 130.902344 C 39.039062 130.753906 39.753906 130.535156 40.449219 130.246094 C 41.144531 129.957031 41.808594 129.601562 42.433594 129.183594 C 43.058594 128.765625 43.636719 128.289062 44.171875 127.753906 C 44.703125 127.222656 45.179688 126.640625 45.597656 126.015625 C 46.015625 125.386719 46.367188 124.726562 46.65625 124.03125 C 46.945312 123.332031 47.164062 122.617188 47.308594 121.875 C 47.457031 121.136719 47.53125 120.390625 47.53125 119.636719 Z M 47.550781 119.636719 " fill-opacity="1" fill-rule="nonzero"/></g><g fill="#ffffff" fill-opacity="1"><g transform="translate(124.758397, 134.421318)"><g><path d="M 21.625 -24.875 C 19.457031 -24.875 17.59375 -24.070312 16.03125 -22.46875 C 14.476562 -20.863281 13.703125 -18.9375 13.703125 -16.6875 C 13.703125 -14.394531 14.476562 -12.445312 16.03125 -10.84375 C 17.59375 -9.238281 19.457031 -8.4375 21.625 -8.4375 C 22.664062 -8.4375 23.648438 -8.566406 24.578125 -8.828125 C 25.503906 -9.085938 26.1875 -9.347656 26.625 -9.609375 L 27.203125 -10 L 31.109375 -2.015625 C 30.804688 -1.796875 30.382812 -1.523438 29.84375 -1.203125 C 29.300781 -0.878906 28.066406 -0.4375 26.140625 0.125 C 24.210938 0.6875 22.144531 0.96875 19.9375 0.96875 C 15.039062 0.96875 10.742188 -0.75 7.046875 -4.1875 C 3.347656 -7.625 1.5 -11.75 1.5 -16.5625 C 1.5 -21.40625 3.347656 -25.566406 7.046875 -29.046875 C 10.742188 -32.535156 15.039062 -34.28125 19.9375 -34.28125 C 22.144531 -34.28125 24.175781 -34.019531 26.03125 -33.5 C 27.894531 -32.988281 29.21875 -32.472656 30 -31.953125 L 31.109375 -31.171875 L 27.203125 -23.3125 C 25.773438 -24.351562 23.914062 -24.875 21.625 -24.875 Z M 21.625 -24.875 "/></g></g></g><g fill="#ffffff" fill-opacity="1"><g transform="translate(150.529248, 134.421318)"><g><path d="M 7.046875 -3.953125 C 3.347656 -7.242188 1.5 -11.46875 1.5 -16.625 C 1.5 -21.78125 3.421875 -26.007812 7.265625 -29.3125 C 11.117188 -32.625 15.882812 -34.28125 21.5625 -34.28125 C 27.144531 -34.28125 31.851562 -32.613281 35.6875 -29.28125 C 39.519531 -25.945312 41.4375 -21.726562 41.4375 -16.625 C 41.4375 -11.519531 39.5625 -7.3125 35.8125 -4 C 32.070312 -0.6875 27.320312 0.96875 21.5625 0.96875 C 15.582031 0.96875 10.742188 -0.671875 7.046875 -3.953125 Z M 15.9375 -22.265625 C 14.445312 -20.796875 13.703125 -18.914062 13.703125 -16.625 C 13.703125 -14.332031 14.414062 -12.457031 15.84375 -11 C 17.269531 -9.550781 19.15625 -8.828125 21.5 -8.828125 C 23.75 -8.828125 25.597656 -9.5625 27.046875 -11.03125 C 28.492188 -12.507812 29.21875 -14.375 29.21875 -16.625 C 29.21875 -18.914062 28.46875 -20.796875 26.96875 -22.265625 C 25.476562 -23.742188 23.65625 -24.484375 21.5 -24.484375 C 19.289062 -24.484375 17.4375 -23.742188 15.9375 -22.265625 Z M 15.9375 -22.265625 "/></g></g></g><g fill="#ffffff" fill-opacity="1"><g transform="translate(187.336236, 134.421318)"><g><path d="M 6.171875 -4.125 C 3.054688 -7.519531 1.5 -11.6875 1.5 -16.625 C 1.5 -21.5625 3.054688 -25.738281 6.171875 -29.15625 C 9.285156 -32.570312 13.242188 -34.28125 18.046875 -34.28125 C 22.460938 -34.28125 26.101562 -32.894531 28.96875 -30.125 L 28.96875 -55.84375 L 40.453125 -55.84375 L 40.453125 0 L 29.09375 0 L 29.09375 -3.765625 L 28.96875 -3.765625 C 26.101562 -0.609375 22.460938 0.96875 18.046875 0.96875 C 13.242188 0.96875 9.285156 -0.726562 6.171875 -4.125 Z M 15.9375 -22.265625 C 14.445312 -20.796875 13.703125 -18.914062 13.703125 -16.625 C 13.703125 -14.332031 14.414062 -12.457031 15.84375 -11 C 17.269531 -9.550781 19.15625 -8.828125 21.5 -8.828125 C 23.75 -8.828125 25.597656 -9.5625 27.046875 -11.03125 C 28.492188 -12.507812 29.21875 -14.375 29.21875 -16.625 C 29.21875 -18.914062 28.46875 -20.796875 26.96875 -22.265625 C 25.476562 -23.742188 23.65625 -24.484375 21.5 -24.484375 C 19.289062 -24.484375 17.4375 -23.742188 15.9375 -22.265625 Z M 15.9375 -22.265625 "/></g></g></g><g fill="#ffffff" fill-opacity="1"><g transform="translate(225.571432, 134.421318)"><g><path d="M 37.59375 -15.0625 L 13.4375 -15.0625 C 13.4375 -12.726562 14.191406 -11 15.703125 -9.875 C 17.222656 -8.75 18.875 -8.1875 20.65625 -8.1875 C 22.507812 -8.1875 23.976562 -8.429688 25.0625 -8.921875 C 26.144531 -9.421875 27.378906 -10.410156 28.765625 -11.890625 L 37.078125 -7.734375 C 33.617188 -1.929688 27.863281 0.96875 19.8125 0.96875 C 14.78125 0.96875 10.46875 -0.75 6.875 -4.1875 C 3.289062 -7.625 1.5 -11.765625 1.5 -16.609375 C 1.5 -21.460938 3.289062 -25.617188 6.875 -29.078125 C 10.46875 -32.546875 14.78125 -34.28125 19.8125 -34.28125 C 25.09375 -34.28125 29.382812 -32.753906 32.6875 -29.703125 C 36 -26.648438 37.65625 -22.289062 37.65625 -16.625 C 37.65625 -15.84375 37.632812 -15.320312 37.59375 -15.0625 Z M 13.765625 -21.421875 L 26.421875 -21.421875 C 26.171875 -23.160156 25.492188 -24.492188 24.390625 -25.421875 C 23.285156 -26.347656 21.863281 -26.8125 20.125 -26.8125 C 18.21875 -26.8125 16.703125 -26.3125 15.578125 -25.3125 C 14.453125 -24.320312 13.847656 -23.023438 13.765625 -21.421875 Z M 13.765625 -21.421875 "/></g></g></g><g fill="#50fa7b" fill-opacity="1"><g transform="translate(258.621984, 134.421318)"><g><path d="M 3.890625 -53.578125 L 23.046875 -53.578125 C 28.203125 -53.578125 32.398438 -52.203125 35.640625 -49.453125 C 38.890625 -46.703125 40.515625 -42.769531 40.515625 -37.65625 C 40.515625 -33.71875 39.53125 -30.414062 37.5625 -27.75 C 35.59375 -25.09375 32.921875 -23.222656 29.546875 -22.140625 L 47.984375 0 L 32.46875 0 L 16.109375 -21.171875 L 16.109375 0 L 3.890625 0 Z M 16.109375 -29.8125 L 17.53125 -29.8125 C 18.65625 -29.8125 19.609375 -29.832031 20.390625 -29.875 C 21.171875 -29.914062 22.054688 -30.066406 23.046875 -30.328125 C 24.046875 -30.585938 24.847656 -30.953125 25.453125 -31.421875 C 26.054688 -31.898438 26.570312 -32.59375 27 -33.5 C 27.4375 -34.414062 27.65625 -35.519531 27.65625 -36.8125 C 27.65625 -38.113281 27.4375 -39.21875 27 -40.125 C 26.570312 -41.039062 26.054688 -41.734375 25.453125 -42.203125 C 24.847656 -42.679688 24.046875 -43.050781 23.046875 -43.3125 C 22.054688 -43.570312 21.171875 -43.722656 20.390625 -43.765625 C 19.609375 -43.804688 18.65625 -43.828125 17.53125 -43.828125 L 16.109375 -43.828125 Z M 16.109375 -29.8125 "/></g></g></g><g fill="#50fa7b" fill-opacity="1"><g transform="translate(298.999484, 134.421318)"><g><path d="M 7.046875 -3.953125 C 3.347656 -7.242188 1.5 -11.46875 1.5 -16.625 C 1.5 -21.78125 3.421875 -26.007812 7.265625 -29.3125 C 11.117188 -32.625 15.882812 -34.28125 21.5625 -34.28125 C 27.144531 -34.28125 31.851562 -32.613281 35.6875 -29.28125 C 39.519531 -25.945312 41.4375 -21.726562 41.4375 -16.625 C 41.4375 -11.519531 39.5625 -7.3125 35.8125 -4 C 32.070312 -0.6875 27.320312 0.96875 21.5625 0.96875 C 15.582031 0.96875 10.742188 -0.671875 7.046875 -3.953125 Z M 15.9375 -22.265625 C 14.445312 -20.796875 13.703125 -18.914062 13.703125 -16.625 C 13.703125 -14.332031 14.414062 -12.457031 15.84375 -11 C 17.269531 -9.550781 19.15625 -8.828125 21.5 -8.828125 C 23.75 -8.828125 25.597656 -9.5625 27.046875 -11.03125 C 28.492188 -12.507812 29.21875 -14.375 29.21875 -16.625 C 29.21875 -18.914062 28.46875 -20.796875 26.96875 -22.265625 C 25.476562 -23.742188 23.65625 -24.484375 21.5 -24.484375 C 19.289062 -24.484375 17.4375 -23.742188 15.9375 -22.265625 Z M 15.9375 -22.265625 "/></g></g></g><g fill="#50fa7b" fill-opacity="1"><g transform="translate(335.806472, 134.421318)"><g><path d="M 7.046875 -3.953125 C 3.347656 -7.242188 1.5 -11.46875 1.5 -16.625 C 1.5 -21.78125 3.421875 -26.007812 7.265625 -29.3125 C 11.117188 -32.625 15.882812 -34.28125 21.5625 -34.28125 C 27.144531 -34.28125 31.851562 -32.613281 35.6875 -29.28125 C 39.519531 -25.945312 41.4375 -21.726562 41.4375 -16.625 C 41.4375 -11.519531 39.5625 -7.3125 35.8125 -4 C 32.070312 -0.6875 27.320312 0.96875 21.5625 0.96875 C 15.582031 0.96875 10.742188 -0.671875 7.046875 -3.953125 Z M 15.9375 -22.265625 C 14.445312 -20.796875 13.703125 -18.914062 13.703125 -16.625 C 13.703125 -14.332031 14.414062 -12.457031 15.84375 -11 C 17.269531 -9.550781 19.15625 -8.828125 21.5 -8.828125 C 23.75 -8.828125 25.597656 -9.5625 27.046875 -11.03125 C 28.492188 -12.507812 29.21875 -14.375 29.21875 -16.625 C 29.21875 -18.914062 28.46875 -20.796875 26.96875 -22.265625 C 25.476562 -23.742188 23.65625 -24.484375 21.5 -24.484375 C 19.289062 -24.484375 17.4375 -23.742188 15.9375 -22.265625 Z M 15.9375 -22.265625 "/></g></g></g><g fill="#50fa7b" fill-opacity="1"><g transform="translate(372.61346, 134.421318)"><g><path d="M 3.890625 0 L 3.890625 -33.3125 L 15.390625 -33.3125 L 15.390625 -29.8125 L 15.515625 -29.8125 C 18.503906 -32.789062 21.6875 -34.28125 25.0625 -34.28125 C 27.488281 -34.28125 29.757812 -33.78125 31.875 -32.78125 C 34 -31.789062 35.601562 -30.257812 36.6875 -28.1875 C 40.0625 -32.25 43.742188 -34.28125 47.734375 -34.28125 C 51.273438 -34.28125 54.320312 -33.285156 56.875 -31.296875 C 59.4375 -29.304688 60.71875 -26.191406 60.71875 -21.953125 L 60.71875 0 L 49.21875 0 L 49.21875 -18.828125 C 49.21875 -20.609375 48.726562 -22.09375 47.75 -23.28125 C 46.78125 -24.46875 45.320312 -25.0625 43.375 -25.0625 C 41.6875 -25.0625 40.398438 -24.550781 39.515625 -23.53125 C 38.628906 -22.519531 38.140625 -21.300781 38.046875 -19.875 L 38.046875 0 L 26.5625 0 L 26.5625 -18.828125 C 26.5625 -20.609375 26.070312 -22.09375 25.09375 -23.28125 C 24.125 -24.46875 22.664062 -25.0625 20.71875 -25.0625 C 18.9375 -25.0625 17.601562 -24.507812 16.71875 -23.40625 C 15.832031 -22.300781 15.390625 -20.992188 15.390625 -19.484375 L 15.390625 0 Z M 3.890625 0 "/></g></g></g></svg>